HIERARCHY
ROOT Hips
{
	OFFSET 0.000000 0.000000 0.000000
	CHANNELS 6 Xposition Yposition Zposition Zrotation Yrotation Xrotation 
	JOINT LHipJoint
	{
		OFFSET 0.000000 0.000000 0.000000
		CHANNELS 3 Zrotation Yrotation Xrotation
		JOINT LeftUpLeg
		{
			OFFSET 1.363060 -1.794630 0.839290
			CHANNELS 3 Zrotation Yrotation Xrotation
			JOINT LeftLeg
			{
				OFFSET 2.448110 -6.726130 0.000000
				CHANNELS 3 Zrotation Yrotation Xrotation
				JOINT LeftFoot
				{
					OFFSET 2.562200 -7.039590 0.000000
					CHANNELS 3 Zrotation Yrotation Xrotation
					JOINT LeftToeBase
					{
						OFFSET 0.157640 -0.433110 2.322550
						CHANNELS 3 Zrotation Yrotation Xrotation
						End Site
						{
							OFFSET 0.000000 0.000000 0.000000
						}
					}
				}
			}
		}
	}
	JOINT RHipJoint
	{
		OFFSET 0.000000 0.000000 0.000000
		CHANNELS 3 Zrotation Yrotation Xrotation
		JOINT RightUpLeg
		{
			OFFSET -1.305520 -1.794630 0.839290
			CHANNELS 3 Zrotation Yrotation Xrotation
			JOINT RightLeg
			{
				OFFSET -2.542530 -6.985550 0.000000
				CHANNELS 3 Zrotation Yrotation Xrotation
				JOINT RightFoot
				{
					OFFSET -2.568260 -7.056230 0.000000
					CHANNELS 3 Zrotation Yrotation Xrotation
					JOINT RightToeBase
					{
						OFFSET -0.164730 -0.452590 2.363150
						CHANNELS 3 Zrotation Yrotation Xrotation
						End Site
						{
							OFFSET 0.000000 0.000000 0.000000
						}
					}
				}
			}
		}
	}
}
MOTION
Frames: 33
Frame Time: 0.008333
3.874157 17.369913 0.949179 -174.111639 -41.410488 -175.014989 -12.219379 3.517181 -2.116797 -4.983292 38.574401 -12.713441 -2.860574 -0.604802 3.541723 2.943227 21.268954 -3.693014 1.507500 -0.000000 -31.958600 8.502613 -1.424992 7.813314 2.294982 17.319653 -17.880395 4.025093 1.137764 0.092050 2.598261 22.932612 14.496867 7.361100 0.000001 -75.025000
3.878830 17.375438 0.970442 -174.064885 -41.151951 -174.913383 -12.140480 3.542683 -2.191289 -5.173723 38.514269 -12.738845 -2.860585 -0.595793 3.364250 2.978404 21.480116 -3.602451 1.570400 -0.000001 -31.905800 8.605033 -1.323572 7.705446 2.223837 17.167216 -17.999379 4.020356 1.146650 0.041529 2.603136 23.245845 14.630264 7.514700 0.000000 -75.485400
3.881010 17.382044 0.989922 -174.011599 -40.871825 -174.751213 -12.055573 3.561506 -2.271423 -5.412016 38.479828 -12.828358 -2.867529 -0.590716 3.169796 3.010771 21.676542 -3.487495 1.643000 -0.000000 -31.867000 8.704854 -1.225870 7.623840 2.120611 17.098533 -18.236789 4.007962 1.145363 0.062466 2.606772 23.510302 14.752672 7.652400 0.000000 -75.916799
3.880597 17.389465 1.007465 -173.960761 -40.545622 -174.538362 -11.972065 3.576503 -2.355711 -5.689002 38.500754 -12.973952 -2.883106 -0.588877 2.964428 3.038360 21.849566 -3.352665 1.721900 -0.000000 -31.836600 8.793778 -1.135892 7.578589 1.984346 17.137825 -18.574741 3.990145 1.135624 0.138430 2.609882 23.720449 14.873900 7.775100 -0.000000 -76.287000
3.877885 17.397140 1.023150 -173.925407 -40.154110 -174.290033 -11.898944 3.591725 -2.443312 -5.991609 38.606594 -13.159362 -2.908882 -0.589178 2.753972 3.058453 21.986122 -3.204465 1.801500 -0.000001 -31.814600 8.863448 -1.057478 7.575956 1.814651 17.300094 -18.984595 3.969386 1.119856 0.251424 2.613090 23.872767 15.000021 7.882600 -0.000001 -76.580500
3.873282 17.404362 1.037234 -173.910116 -39.688311 -174.024207 -11.841780 3.610197 -2.535638 -6.305129 38.822583 -13.367476 -2.946548 -0.590565 2.544817 3.067955 22.068849 -3.053325 1.874300 0.000000 -31.805300 8.909552 -0.992979 7.617553 1.612911 17.589292 -19.437361 3.947673 1.100292 0.386035 2.616653 23.967558 15.130761 7.973300 0.000001 -76.782800
3.867397 17.410418 1.049992 -173.917553 -39.151030 -173.756620 -11.802339 3.633261 -2.635172 -6.617271 39.160255 -13.582933 -2.996813 -0.592082 2.342350 3.064890 22.085287 -2.909836 1.933300 -0.000000 -31.813700 8.931605 -0.942853 7.700131 1.381162 17.998468 -19.905760 3.926074 1.078733 0.528008 2.620400 24.006829 15.262749 8.045500 0.000000 -76.887900
3.860763 17.414719 1.061652 -173.946662 -38.556346 -173.498223 -11.779896 3.660803 -2.743780 -6.919889 39.615553 -13.794502 -3.059209 -0.592993 2.151306 3.048716 22.029474 -2.784203 1.972900 -0.000000 -31.843899 8.931397 -0.906101 7.817083 1.121802 18.511000 -20.368902 3.905151 1.056705 0.664423 2.623956 23.994121 15.391313 8.097700 0.000000 -76.895800
3.853897 17.416863 1.072400 -173.999173 -37.926716 -173.255542 -11.772553 3.692555 -2.859576 -7.209675 40.168476 -13.995081 -3.131894 -0.593102 1.975593 3.020430 21.903592 -2.685186 1.989800 -0.000000 -31.896600 8.911821 -0.881778 7.960488 0.838075 19.099902 -20.811078 3.885113 1.035515 0.786390 2.627068 23.936577 15.509443 8.129000 -0.000000 -76.818100
3.846880 17.416714 1.082216 -174.072912 -37.291523 -173.028465 -11.778418 3.727475 -2.977349 -7.489439 40.784462 -14.184552 -3.211722 -0.592693 1.818405 2.982624 21.718131 -2.619286 1.983700 -0.000001 -31.969300 8.875372 -0.869175 8.122630 0.531642 19.734677 -21.224676 3.866036 1.016442 0.885427 2.629546 23.839675 15.612220 8.139200 0.000000 -76.672400
3.839884 17.414482 1.090946 -174.170286 -36.685026 -172.811822 -11.794058 3.763661 -3.089311 -7.764947 41.415876 -14.365007 -3.294055 -0.592569 1.681791 2.939442 21.493758 -2.588277 1.958000 -0.000000 -32.054000 8.825553 -0.867961 8.296277 0.204178 20.383494 -21.604655 3.847143 1.000253 0.952562 2.631044 23.706131 15.697765 8.128500 0.000000 -76.473500
3.833360 17.410575 1.098693 -174.291316 -36.143212 -172.604637 -11.814575 3.798181 -3.188287 -8.039231 42.012316 -14.535431 -3.373442 -0.593625 1.568829 2.895465 21.254860 -2.591747 1.917600 -0.000000 -32.139800 8.767531 -0.877460 8.473249 -0.139875 21.013382 -21.946517 3.827022 0.986718 0.983625 2.630964 23.539306 15.765056 8.098300 -0.000000 -76.243101
3.827483 17.405297 1.105802 -174.429135 -35.694468 -172.407724 -11.835299 3.827770 -3.270650 -8.311504 42.533044 -14.694152 -3.445448 -0.596263 1.486438 2.854598 21.021700 -2.632440 1.865401 0.000000 -32.216900 8.706967 -0.895925 8.643921 -0.493373 21.594144 -22.247504 3.804439 0.975119 0.982490 2.628791 23.346394 15.810143 8.050200 0.000000 -76.012000
3.822814 17.398778 1.112670 -174.583711 -35.354216 -172.220250 -11.852568 3.850289 -3.336223 -8.577308 42.950968 -14.839324 -3.507395 -0.600006 1.444807 2.819647 20.809010 -2.714652 1.802600 0.000000 -32.279100 8.649082 -0.920543 8.798746 -0.847981 22.104241 -22.505371 3.778443 0.964738 0.958685 2.624315 23.134119 15.827136 7.984699 0.000000 -75.800800
3.819583 17.391174 1.119592 -174.750633 -35.127565 -172.040078 -11.863619 3.864537 -3.386211 -8.834736 43.250025 -14.974614 -3.558133 -0.604058 1.454182 2.792547 20.626030 -2.843223 1.729099 0.000000 -32.321000 8.598262 -0.948121 8.929759 -1.195426 22.527856 -22.724069 3.748737 0.954956 0.925999 2.617727 22.911549 15.810365 7.903500 -0.000000 -75.638900
3.817803 17.382681 1.126767 -174.925522 -35.011142 -171.864328 -11.867104 3.870401 -3.422138 -9.082532 43.423284 -15.104423 -3.597331 -0.607556 1.521286 2.774615 20.479858 -3.018532 1.645800 -0.000000 -32.338700 8.557401 -0.975860 9.031711 -1.528344 22.856559 -22.910217 3.715498 0.945229 0.899065 2.609484 22.687970 15.756289 7.808900 -0.000001 -75.534400
3.817340 17.373636 1.134257 -175.104442 -34.995638 -171.690706 -11.862574 3.868122 -3.445355 -9.321003 43.471552 -15.234987 -3.625253 -0.609766 1.648379 2.766546 20.374836 -3.237244 1.554200 0.000000 -32.328300 8.527721 -1.001721 9.102783 -1.840813 23.090091 -23.071770 3.679269 0.935125 0.888335 2.600052 22.468478 15.666933 7.703900 -0.000001 -75.495899
3.817834 17.364461 1.141954 -175.283602 -35.067277 -171.516020 -11.850967 3.858588 -3.456396 -9.550792 43.401936 -15.371093 -3.642483 -0.610411 1.831263 2.768411 20.313464 -3.490156 1.457601 0.000000 -32.287500 8.508747 -1.024976 9.144248 -2.128051 23.233265 -23.216866 3.640862 0.924318 0.901179 2.589942 22.257018 15.547924 7.592200 0.000000 -75.516300
3.818948 17.355648 1.149716 -175.461281 -35.210718 -171.339195 -11.834250 3.842927 -3.455684 -9.772084 43.227854 -15.514912 -3.649884 -0.609602 2.060183 2.779459 20.294685 -3.764452 1.359699 0.000000 -32.216700 8.498511 -1.045962 9.159931 -2.386965 23.296613 -23.351765 3.601229 0.912569 0.940288 2.579551 22.054174 15.408188 7.477200 0.000000 -75.582700
3.820055 17.347626 1.157437 -175.632136 -35.410632 -171.162583 -11.815556 3.822331 -3.443350 -9.983971 42.967334 -15.665306 -3.648301 -0.608006 2.319923 2.798389 20.315188 -4.045034 1.264700 -0.000000 -32.118900 8.493757 -1.066155 9.155469 -2.615634 23.294100 -23.480220 3.561630 0.899880 1.003702 2.569110 21.857720 15.259011 7.362100 -0.000000 -75.677400
3.820775 17.340811 1.164858 -175.796552 -35.652408 -170.987376 -11.797880 3.798137 -3.420029 -10.184217 42.641465 -15.817273 -3.638872 -0.606657 2.591442 2.823214 20.368701 -4.315608 1.177200 -0.000000 -31.999300 8.491264 -1.087516 9.137215 -2.813625 23.241862 -23.602615 3.522991 0.886380 1.085214 2.558680 21.663144 15.111848 7.249100 0.000000 -75.783100
3.820502 17.335507 1.171936 -175.949358 -35.924482 -170.818861 -11.784656 3.771390 -3.386529 -10.369140 42.272107 -15.963211 -3.622582 -0.606875 2.854174 2.851606 20.446712 -4.561360 1.101100 -0.000000 -31.865500 8.487507 -1.112312 9.111422 -2.981248 23.156245 -23.716726 3.486458 0.872476 1.175689 2.548145 21.464102 14.977247 7.139500 -0.000000 -75.881000
3.818976 17.331879 1.178484 -176.090564 -36.218172 -170.661367 -11.778606 3.743108 -3.344313 -10.533228 41.880599 -16.092503 -3.600572 -0.609967 3.088154 2.880909 20.538837 -4.769655 1.039600 0.000000 -31.725600 8.479860 -1.142633 9.083313 -3.119141 23.052393 -23.815501 3.452794 0.858705 1.263538 2.537233 21.253572 14.864010 7.033300 0.000000 -75.955900
3.816058 17.329944 1.184435 -176.219113 -36.530419 -170.518393 -11.780389 3.714035 -3.295194 -10.674489 41.483043 -16.196875 -3.573948 -0.617048 3.277338 2.908823 20.635041 -4.932494 0.994800 0.000000 -31.587400 8.467652 -1.179615 9.056435 -3.230524 22.941238 -23.894800 3.421914 0.845201 1.341736 2.525476 21.024402 14.775107 6.928800 -0.000000 -75.997600
3.811588 17.329623 1.189847 -176.332457 -36.859801 -170.397027 -11.791854 3.684738 -3.241321 -10.785043 41.094931 -16.264144 -3.543652 -0.628794 3.410298 2.932929 20.724041 -5.046005 0.967000 0.000000 -31.457700 8.449578 -1.224214 9.032676 -3.315889 22.831419 -23.941786 3.394584 0.832970 1.397287 2.512478 20.771196 14.713182 6.824500 -0.000000 -76.001300
3.805838 17.330672 1.194674 -176.433382 -37.210074 -170.298151 -11.811712 3.655650 -3.184268 -10.864731 40.722089 -16.290278 -3.510706 -0.645351 3.483196 2.951779 20.797437 -5.112148 0.954900 0.000000 -31.339800 8.426943 -1.275905 9.012124 -3.378875 22.725188 -23.953099 3.370033 0.821957 1.429820 2.497801 20.489851 14.672160 6.716800 0.000000 -75.956100
3.799137 17.332765 1.199059 -176.523391 -37.586962 -170.226149 -11.839115 3.627107 -3.126194 -10.909052 40.368770 -16.268625 -3.475909 -0.666155 3.498212 2.964063 20.846917 -5.135779 0.956101 0.000000 -31.238899 8.401068 -1.333560 8.992934 -3.421085 22.621905 -23.917201 3.348176 0.812878 1.432819 2.481053 20.178533 14.646681 6.602700 0.000000 -75.879000
3.791852 17.335487 1.203042 -176.604239 -37.997231 -170.180100 -11.872083 3.599347 -3.067775 -10.919532 40.030863 -16.200461 -3.439902 -0.690343 3.463788 2.969654 20.868494 -5.126791 0.966799 -0.000000 -31.152800 8.373965 -1.395307 8.972541 -3.445274 22.516159 -23.833878 3.328176 0.805575 1.413090 2.462052 19.837870 14.624519 6.478499 0.000000 -75.757500
3.784369 17.338427 1.206776 -176.676752 -38.448847 -170.161068 -11.908383 3.572448 -3.010166 -10.895963 39.703094 -16.087206 -3.403184 -0.716500 3.392930 2.968597 20.858640 -5.095797 0.982700 -0.000000 -31.084400 8.348005 -1.458786 8.947239 -3.453232 22.400865 -23.698068 3.309577 0.800361 1.372380 2.440648 19.470242 14.595457 6.341800 0.000000 -75.615900
3.777329 17.341196 1.210339 -176.746935 -38.949062 -170.166018 -11.945121 3.546526 -2.953583 -10.841446 39.375953 -15.934291 -3.366115 -0.743105 3.300894 2.961598 20.817036 -5.054277 0.999300 -0.000000 -31.032800 8.325966 -1.521314 8.913043 -3.446524 22.265873 -23.510954 3.291433 0.796934 1.319551 2.416905 19.080455 14.547762 6.191100 -0.000001 -75.466300
3.771128 17.343468 1.213797 -176.815562 -39.501993 -170.192638 -11.980062 3.521412 -2.898265 -10.759254 39.040412 -15.748023 -3.328801 -0.768778 3.202303 2.949712 20.745432 -5.012921 1.013000 0.000000 -30.994200 8.309810 -1.580445 8.866447 -3.426210 22.102959 -23.276024 3.273104 0.794924 1.264631 2.390958 18.673790 14.470387 6.025500 -0.000000 -75.302000
3.766194 17.344987 1.217105 -176.886454 -40.111735 -170.236087 -12.010429 3.497275 -2.843405 -10.654648 38.686249 -15.537357 -3.291380 -0.792223 3.111145 2.934024 20.646301 -4.979800 1.021000 -0.000000 -30.971700 8.301920 -1.634015 8.804568 -3.392804 21.902142 -22.997927 3.253971 0.794061 1.214775 2.363099 18.256855 14.357283 5.846500 0.000000 -75.155500
3.762688 17.345679 1.220344 -176.957875 -40.777065 -170.295407 -12.035048 3.473793 -2.789447 -10.530612 38.309318 -15.307979 -3.253789 -0.812553 3.036057 2.915460 20.522869 -4.959560 1.022000 0.000000 -30.961600 8.303104 -1.680401 8.725316 -3.345957 21.658443 -22.682216 3.233799 0.793794 1.178522 2.333565 17.835517 14.203979 5.655799 0.000000 -75.011600
